<svg width="35" height="35" viewBox="0 0 35 35" fill="none" xmlns="http://www.w3.org/2000/svg">
<path d="M17.5 0C9.68451 0 3.3262 6.3583 3.3262 14.1738C3.3262 17.3987 4.38304 20.4358 6.38251 22.9569C8.97144 26.2211 16.5001 33.9715 16.8193 34.2998L17.4999 35L18.1806 34.2999C18.5 33.9715 26.0309 26.2193 28.6203 22.954C30.6179 20.435 31.6738 17.3989 31.6738 14.1738C31.6738 6.3583 25.3155 0 17.5 0ZM27.1325 21.7742C25.0481 24.4028 19.4502 30.25 17.5 32.2725C15.55 30.2501 9.95413 24.4046 7.87017 21.777C6.13966 19.595 5.22494 16.9659 5.22494 14.1738C5.22494 7.40527 10.7315 1.89874 17.5 1.89874C24.2684 1.89874 29.7751 7.40527 29.775 14.1738C29.775 16.9661 28.8612 19.5943 27.1325 21.7742Z" fill="#F0C419"/>
<path d="M17.5 5.62643C12.8737 5.62643 9.11005 9.39011 9.11005 14.0164C9.11005 18.6427 12.8738 22.4063 17.5 22.4063C22.1262 22.4063 25.89 18.6426 25.89 14.0164C25.89 9.39021 22.1263 5.62643 17.5 5.62643ZM17.5 20.5076C13.9207 20.5076 11.0088 17.5956 11.0088 14.0164C11.0088 10.4371 13.9208 7.52517 17.5 7.52517C21.0792 7.52517 23.9911 10.4372 23.9912 14.0164C23.9912 17.5957 21.0793 20.5076 17.5 20.5076Z" fill="#F0C419"/>
</svg>
