<svg width="94" height="102" viewBox="0 0 94 102" fill="none" xmlns="http://www.w3.org/2000/svg">
<path d="M2 86V33.0449C2 29.7725 3.77622 26.758 6.63873 25.1722L47.1795 2.71364C50.1786 1.05223 53.8612 1.23911 56.6767 3.1956L92 27.7419" stroke="black" stroke-width="3" stroke-linecap="round" stroke-linejoin="round"/>
<path d="M14 99.5V43.8287C14 40.5925 15.7375 37.6054 18.5506 36.0055L45.5506 20.6493C51.5504 17.2369 59 21.5702 59 28.4725V51.9072" stroke="#F0C419" stroke-width="3" stroke-linecap="round"/>
<path d="M42.1186 76.6397C40.9487 75.4698 40.9487 73.5724 42.1186 72.4025C43.2885 71.2326 45.1859 71.2326 46.3558 72.4025C53.0636 79.1103 63.9785 79.1105 70.6864 72.4025C71.8563 71.2326 73.7537 71.2326 74.9236 72.4025C76.0935 73.5724 76.0935 75.4698 74.9236 76.6397C65.8791 85.6843 51.1628 85.684 42.1186 76.6397Z" fill="#24D6AB"/>
<path d="M2 86L14 100" stroke="black" stroke-width="3" stroke-linecap="round"/>
</svg>
