<svg width="48" height="48" viewBox="0 0 48 48" fill="none" xmlns="http://www.w3.org/2000/svg">
<path d="M24 0C10.7664 0 0 10.7664 0 24C0 37.2336 10.7664 48 24 48C37.2336 48 48 37.2336 48 24C48 10.7664 37.2336 0 24 0ZM24 46.4C11.6488 46.4 1.6 36.3512 1.6 24C1.6 11.6488 11.6488 1.6 24 1.6C36.3512 1.6 46.4 11.6488 46.4 24C46.4 36.3512 36.3512 46.4 24 46.4Z" fill="#24D6AB"/>
<path d="M31.2 16C33.8472 16 36 13.8472 36 11.2C36 8.55279 33.8472 6.39999 31.2 6.39999C28.6952 6.39999 26.636 8.32879 26.4216 10.7792L15.1688 19.0304C14.4688 18.6312 13.6616 18.4 12.8 18.4C10.1528 18.4 8 20.5528 8 23.2C8 25.8472 10.1528 28 12.8 28C13.6616 28 14.4688 27.7688 15.1688 27.3696L26.4208 35.6208C26.636 38.0712 28.6952 40 31.2 40C33.8472 40 36 37.8472 36 35.2C36 32.5528 33.8472 30.4 31.2 30.4C29.048 30.4 27.2224 31.824 26.6152 33.7784L16.4424 26.3184C17.1616 25.4784 17.6 24.3904 17.6 23.2C17.6 22.0096 17.1616 20.9216 16.4416 20.0816L26.6144 12.6216C27.2224 14.576 29.048 16 31.2 16ZM31.2 7.99999C32.9648 7.99999 34.4 9.43519 34.4 11.2C34.4 12.9648 32.9648 14.4 31.2 14.4C29.4352 14.4 28 12.9648 28 11.2C28 9.43519 29.4352 7.99999 31.2 7.99999ZM9.6 23.2C9.6 21.4352 11.0352 20 12.8 20C14.5648 20 16 21.4352 16 23.2C16 24.9648 14.5648 26.4 12.8 26.4C11.0352 26.4 9.6 24.9648 9.6 23.2ZM31.2 32C32.9648 32 34.4 33.4352 34.4 35.2C34.4 36.9648 32.9648 38.4 31.2 38.4C29.4352 38.4 28 36.9648 28 35.2C28 33.4352 29.4352 32 31.2 32Z" fill="#24D6AB"/>
</svg>
