<svg width="48" height="48" viewBox="0 0 48 48" fill="none" xmlns="http://www.w3.org/2000/svg">
<path d="M45.9962 14.3852C44.7121 11.4516 42.8803 8.83913 40.5518 6.62091C40.2512 6.3345 39.7756 6.34594 39.4892 6.64669C39.2029 6.94725 39.2144 7.42294 39.515 7.70916C44.0172 11.9983 46.4968 17.7839 46.4968 24C46.4968 36.4048 36.4048 46.4969 23.9999 46.4969C11.595 46.4969 1.50309 36.4048 1.50309 24C1.50309 11.5952 11.5952 1.50309 24 1.50309C28.5315 1.50309 32.8997 2.84428 36.6321 5.38144C36.9753 5.61478 37.4427 5.52562 37.6762 5.1825C37.9095 4.83919 37.8203 4.37175 37.4771 4.13841C33.4944 1.43109 28.8342 0 24 0C17.5894 0 11.5625 2.49638 7.02947 7.02947C2.49647 11.5625 0 17.5894 0 24C0 30.4106 2.49647 36.4375 7.02947 40.9705C11.5625 45.5036 17.5894 48 24 48C30.4106 48 36.4375 45.5036 40.9705 40.9705C45.5035 36.4375 48 30.4106 48 24C48 20.6576 47.3258 17.4227 45.9962 14.3852Z" fill="black"/>
<path d="M34.9061 10.1769L20.4521 16.9054C20.0758 17.0805 19.9128 17.5277 20.088 17.904C20.2632 18.2803 20.7103 18.4436 21.0865 18.2683L30.0026 14.1176L25.6679 17.6267L15.7204 25.6795L10.2795 23.299L17.9038 19.7498C18.2801 19.5745 18.4432 19.1275 18.268 18.7512C18.0928 18.3748 17.6455 18.2116 17.2695 18.3869L9.06264 22.2074C8.62633 22.4105 8.35089 22.8548 8.36195 23.3357C8.37274 23.8063 8.65717 24.2299 9.08833 24.4185L15.1635 27.0763L16.9428 37.7519C17.0523 38.412 17.9461 38.6 18.3128 38.0402L23.3599 30.3367L32.9047 34.7909C33.6694 35.1481 34.5794 34.6023 34.6287 33.7629L35.9735 10.902C35.9749 10.8808 35.9748 10.8591 35.9743 10.8378C35.9593 10.3058 35.3878 9.95413 34.9061 10.1769ZM17.8141 33.8374L16.6512 26.8598L28.4983 17.2693L19.431 27.4356C19.3495 27.5271 19.2889 27.6422 19.2608 27.7618L17.8141 33.8374ZM19.4108 33.6218L20.5095 29.0067L21.9836 29.6946L19.4108 33.6218ZM22.816 28.4243L21.2253 27.6821L29.0505 18.9084L27.9187 20.636L22.816 28.4243ZM33.1534 33.2485L24.1922 29.0666L34.3075 13.6274L33.1534 33.2485Z" fill="black"/>
</svg>
